<mxfile host="Electron" agent="Mozilla/5.0 (Windows NT 10.0; Win64; x64) AppleWebKit/537.36 (KHTML, like Gecko) draw.io/24.7.5 Chrome/126.0.6478.183 Electron/31.3.0 Safari/537.36" version="24.7.5">
  <diagram name="Seite-1" id="jQTKm3Vap7D5BMFdht-m">
    <mxGraphModel dx="1997" dy="678" grid="0" gridSize="5" guides="1" tooltips="1" connect="1" arrows="1" fold="1" page="1" pageScale="1" pageWidth="827" pageHeight="1169" math="0" shadow="0">
      <root>
        <mxCell id="0" />
        <mxCell id="1" parent="0" />
        <mxCell id="_GVp-q5QUONOE__FDdNF-9" value="" style="ellipse;whiteSpace=wrap;html=1;aspect=fixed;fillColor=#ffcc99;strokeColor=none;" vertex="1" parent="1">
          <mxGeometry x="293" y="370" width="40" height="40" as="geometry" />
        </mxCell>
        <mxCell id="_GVp-q5QUONOE__FDdNF-10" value="" style="ellipse;whiteSpace=wrap;html=1;aspect=fixed;fillColor=#ffcc99;strokeColor=none;" vertex="1" parent="1">
          <mxGeometry x="293" y="420" width="40" height="40" as="geometry" />
        </mxCell>
        <mxCell id="_GVp-q5QUONOE__FDdNF-1" value="x&lt;sub&gt;2&lt;/sub&gt;" style="ellipse;whiteSpace=wrap;html=1;aspect=fixed;fillColor=#d5e8d4;strokeColor=none;fontStyle=1" vertex="1" parent="1">
          <mxGeometry x="80" y="320" width="40" height="40" as="geometry" />
        </mxCell>
        <mxCell id="_GVp-q5QUONOE__FDdNF-2" value="x&lt;sub&gt;3&lt;/sub&gt;" style="ellipse;whiteSpace=wrap;html=1;aspect=fixed;fillColor=#d5e8d4;strokeColor=none;fontStyle=1" vertex="1" parent="1">
          <mxGeometry x="80" y="370" width="40" height="40" as="geometry" />
        </mxCell>
        <mxCell id="_GVp-q5QUONOE__FDdNF-3" value="x&lt;sub&gt;4&lt;/sub&gt;" style="ellipse;whiteSpace=wrap;html=1;aspect=fixed;fillColor=#d5e8d4;strokeColor=none;fontStyle=1" vertex="1" parent="1">
          <mxGeometry x="80" y="420" width="40" height="40" as="geometry" />
        </mxCell>
        <mxCell id="_GVp-q5QUONOE__FDdNF-4" value="x&lt;sub&gt;5&lt;/sub&gt;" style="ellipse;whiteSpace=wrap;html=1;aspect=fixed;fillColor=#d5e8d4;strokeColor=none;fontStyle=1" vertex="1" parent="1">
          <mxGeometry x="80" y="470" width="40" height="40" as="geometry" />
        </mxCell>
        <mxCell id="_GVp-q5QUONOE__FDdNF-5" value="" style="ellipse;whiteSpace=wrap;html=1;aspect=fixed;fillColor=#d5e8d4;strokeColor=none;" vertex="1" parent="1">
          <mxGeometry x="200" y="320" width="40" height="40" as="geometry" />
        </mxCell>
        <mxCell id="_GVp-q5QUONOE__FDdNF-6" value="" style="ellipse;whiteSpace=wrap;html=1;aspect=fixed;fillColor=#d5e8d4;strokeColor=none;" vertex="1" parent="1">
          <mxGeometry x="200" y="370" width="40" height="40" as="geometry" />
        </mxCell>
        <mxCell id="_GVp-q5QUONOE__FDdNF-7" value="" style="ellipse;whiteSpace=wrap;html=1;aspect=fixed;fillColor=#d5e8d4;strokeColor=none;" vertex="1" parent="1">
          <mxGeometry x="200" y="420" width="40" height="40" as="geometry" />
        </mxCell>
        <mxCell id="_GVp-q5QUONOE__FDdNF-8" value="" style="ellipse;whiteSpace=wrap;html=1;aspect=fixed;fillColor=#d5e8d4;strokeColor=none;" vertex="1" parent="1">
          <mxGeometry x="200" y="470" width="40" height="40" as="geometry" />
        </mxCell>
        <mxCell id="_GVp-q5QUONOE__FDdNF-11" value="x&lt;sub&gt;6&lt;/sub&gt;" style="ellipse;whiteSpace=wrap;html=1;aspect=fixed;fillColor=#d5e8d4;strokeColor=none;fontStyle=1" vertex="1" parent="1">
          <mxGeometry x="80" y="520" width="40" height="40" as="geometry" />
        </mxCell>
        <mxCell id="_GVp-q5QUONOE__FDdNF-12" value="x&lt;sub&gt;1&lt;/sub&gt;" style="ellipse;whiteSpace=wrap;html=1;aspect=fixed;fillColor=#d5e8d4;strokeColor=none;fontStyle=1" vertex="1" parent="1">
          <mxGeometry x="80" y="270" width="40" height="40" as="geometry" />
        </mxCell>
        <mxCell id="_GVp-q5QUONOE__FDdNF-23" value="" style="endArrow=none;html=1;rounded=0;exitX=1;exitY=0.5;exitDx=0;exitDy=0;strokeWidth=0.5;strokeColor=#4D4D4D;entryX=0;entryY=0.5;entryDx=0;entryDy=0;endFill=0;" edge="1" parent="1" source="_GVp-q5QUONOE__FDdNF-12" target="_GVp-q5QUONOE__FDdNF-5">
          <mxGeometry width="50" height="50" relative="1" as="geometry">
            <mxPoint x="300" y="240" as="sourcePoint" />
            <mxPoint x="350" y="190" as="targetPoint" />
          </mxGeometry>
        </mxCell>
        <mxCell id="_GVp-q5QUONOE__FDdNF-24" value="" style="endArrow=none;html=1;rounded=0;exitX=1;exitY=0.5;exitDx=0;exitDy=0;strokeWidth=0.5;strokeColor=#4D4D4D;entryX=0;entryY=0.5;entryDx=0;entryDy=0;endFill=0;" edge="1" parent="1" source="_GVp-q5QUONOE__FDdNF-12" target="_GVp-q5QUONOE__FDdNF-6">
          <mxGeometry width="50" height="50" relative="1" as="geometry">
            <mxPoint x="130" y="300" as="sourcePoint" />
            <mxPoint x="210" y="350" as="targetPoint" />
          </mxGeometry>
        </mxCell>
        <mxCell id="_GVp-q5QUONOE__FDdNF-25" value="" style="endArrow=none;html=1;rounded=0;exitX=1;exitY=0.5;exitDx=0;exitDy=0;strokeWidth=0.5;strokeColor=#4D4D4D;entryX=0;entryY=0.5;entryDx=0;entryDy=0;endFill=0;" edge="1" parent="1" source="_GVp-q5QUONOE__FDdNF-12" target="_GVp-q5QUONOE__FDdNF-7">
          <mxGeometry width="50" height="50" relative="1" as="geometry">
            <mxPoint x="130" y="300" as="sourcePoint" />
            <mxPoint x="210" y="400" as="targetPoint" />
          </mxGeometry>
        </mxCell>
        <mxCell id="_GVp-q5QUONOE__FDdNF-26" value="" style="endArrow=none;html=1;rounded=0;exitX=1;exitY=0.5;exitDx=0;exitDy=0;strokeWidth=0.5;strokeColor=#4D4D4D;entryX=0;entryY=0.5;entryDx=0;entryDy=0;endFill=0;" edge="1" parent="1" source="_GVp-q5QUONOE__FDdNF-12" target="_GVp-q5QUONOE__FDdNF-8">
          <mxGeometry width="50" height="50" relative="1" as="geometry">
            <mxPoint x="130" y="300" as="sourcePoint" />
            <mxPoint x="210" y="450" as="targetPoint" />
          </mxGeometry>
        </mxCell>
        <mxCell id="_GVp-q5QUONOE__FDdNF-27" value="" style="endArrow=none;html=1;rounded=0;exitX=1;exitY=0.5;exitDx=0;exitDy=0;strokeWidth=0.5;strokeColor=#4D4D4D;entryX=0;entryY=0.5;entryDx=0;entryDy=0;startArrow=none;startFill=0;endFill=0;" edge="1" parent="1" target="_GVp-q5QUONOE__FDdNF-5">
          <mxGeometry width="50" height="50" relative="1" as="geometry">
            <mxPoint x="119.99999999999997" y="339.97" as="sourcePoint" />
            <mxPoint x="200.0000000000001" y="339.97" as="targetPoint" />
          </mxGeometry>
        </mxCell>
        <mxCell id="_GVp-q5QUONOE__FDdNF-28" value="" style="endArrow=none;html=1;rounded=0;exitX=1;exitY=0.5;exitDx=0;exitDy=0;strokeWidth=0.5;strokeColor=#4D4D4D;entryX=0;entryY=0.5;entryDx=0;entryDy=0;endFill=0;" edge="1" parent="1" source="_GVp-q5QUONOE__FDdNF-2" target="_GVp-q5QUONOE__FDdNF-5">
          <mxGeometry width="50" height="50" relative="1" as="geometry">
            <mxPoint x="140" y="310" as="sourcePoint" />
            <mxPoint x="220" y="360" as="targetPoint" />
          </mxGeometry>
        </mxCell>
        <mxCell id="_GVp-q5QUONOE__FDdNF-29" value="" style="endArrow=none;html=1;rounded=0;exitX=1;exitY=0.5;exitDx=0;exitDy=0;strokeWidth=0.5;strokeColor=#4D4D4D;entryX=0;entryY=0.5;entryDx=0;entryDy=0;endFill=0;" edge="1" parent="1" source="_GVp-q5QUONOE__FDdNF-3" target="_GVp-q5QUONOE__FDdNF-5">
          <mxGeometry width="50" height="50" relative="1" as="geometry">
            <mxPoint x="150" y="320" as="sourcePoint" />
            <mxPoint x="230" y="370" as="targetPoint" />
          </mxGeometry>
        </mxCell>
        <mxCell id="_GVp-q5QUONOE__FDdNF-31" value="" style="endArrow=none;html=1;rounded=0;exitX=1;exitY=0.5;exitDx=0;exitDy=0;strokeWidth=0.5;strokeColor=#4D4D4D;entryX=0;entryY=0.5;entryDx=0;entryDy=0;endFill=0;" edge="1" parent="1" source="_GVp-q5QUONOE__FDdNF-4" target="_GVp-q5QUONOE__FDdNF-5">
          <mxGeometry width="50" height="50" relative="1" as="geometry">
            <mxPoint x="130" y="450" as="sourcePoint" />
            <mxPoint x="210" y="350" as="targetPoint" />
          </mxGeometry>
        </mxCell>
        <mxCell id="_GVp-q5QUONOE__FDdNF-32" value="" style="endArrow=none;html=1;rounded=0;exitX=1;exitY=0.5;exitDx=0;exitDy=0;strokeWidth=0.5;strokeColor=#4D4D4D;entryX=0;entryY=0.5;entryDx=0;entryDy=0;endFill=0;" edge="1" parent="1" source="_GVp-q5QUONOE__FDdNF-11" target="_GVp-q5QUONOE__FDdNF-5">
          <mxGeometry width="50" height="50" relative="1" as="geometry">
            <mxPoint x="140" y="460" as="sourcePoint" />
            <mxPoint x="220" y="360" as="targetPoint" />
          </mxGeometry>
        </mxCell>
        <mxCell id="_GVp-q5QUONOE__FDdNF-33" value="" style="endArrow=none;html=1;rounded=0;exitX=1;exitY=0.5;exitDx=0;exitDy=0;strokeWidth=0.5;strokeColor=#4D4D4D;entryX=0;entryY=0.5;entryDx=0;entryDy=0;startArrow=none;startFill=0;endFill=0;" edge="1" parent="1" source="_GVp-q5QUONOE__FDdNF-1" target="_GVp-q5QUONOE__FDdNF-7">
          <mxGeometry width="50" height="50" relative="1" as="geometry">
            <mxPoint x="179.99999999999997" y="297" as="sourcePoint" />
            <mxPoint x="260" y="297.03" as="targetPoint" />
          </mxGeometry>
        </mxCell>
        <mxCell id="_GVp-q5QUONOE__FDdNF-34" value="" style="endArrow=none;html=1;rounded=0;exitX=1;exitY=0.5;exitDx=0;exitDy=0;strokeWidth=0.5;strokeColor=#4D4D4D;entryX=0;entryY=0.5;entryDx=0;entryDy=0;startArrow=none;startFill=0;endFill=0;" edge="1" parent="1" source="_GVp-q5QUONOE__FDdNF-3" target="_GVp-q5QUONOE__FDdNF-6">
          <mxGeometry width="50" height="50" relative="1" as="geometry">
            <mxPoint x="131.99999999999997" y="437" as="sourcePoint" />
            <mxPoint x="212" y="437.03" as="targetPoint" />
          </mxGeometry>
        </mxCell>
        <mxCell id="_GVp-q5QUONOE__FDdNF-35" value="" style="endArrow=none;html=1;rounded=0;exitX=1;exitY=0.5;exitDx=0;exitDy=0;strokeWidth=0.5;strokeColor=#4D4D4D;entryX=0;entryY=0.5;entryDx=0;entryDy=0;startArrow=none;startFill=0;endFill=0;" edge="1" parent="1" source="_GVp-q5QUONOE__FDdNF-1" target="_GVp-q5QUONOE__FDdNF-6">
          <mxGeometry width="50" height="50" relative="1" as="geometry">
            <mxPoint x="149.99999999999997" y="369.97" as="sourcePoint" />
            <mxPoint x="230" y="370" as="targetPoint" />
          </mxGeometry>
        </mxCell>
        <mxCell id="_GVp-q5QUONOE__FDdNF-36" value="" style="endArrow=none;html=1;rounded=0;exitX=1;exitY=0.5;exitDx=0;exitDy=0;strokeWidth=0.5;strokeColor=#4D4D4D;entryX=0;entryY=0.5;entryDx=0;entryDy=0;startArrow=none;startFill=0;endFill=0;" edge="1" parent="1" source="_GVp-q5QUONOE__FDdNF-2" target="_GVp-q5QUONOE__FDdNF-6">
          <mxGeometry width="50" height="50" relative="1" as="geometry">
            <mxPoint x="159.99999999999997" y="379.97" as="sourcePoint" />
            <mxPoint x="240" y="380" as="targetPoint" />
          </mxGeometry>
        </mxCell>
        <mxCell id="_GVp-q5QUONOE__FDdNF-37" value="" style="endArrow=none;html=1;rounded=0;exitX=1;exitY=0.5;exitDx=0;exitDy=0;strokeWidth=0.5;strokeColor=#4D4D4D;entryX=0;entryY=0.5;entryDx=0;entryDy=0;startArrow=none;startFill=0;endFill=0;" edge="1" parent="1" source="_GVp-q5QUONOE__FDdNF-1" target="_GVp-q5QUONOE__FDdNF-8">
          <mxGeometry width="50" height="50" relative="1" as="geometry">
            <mxPoint x="130" y="350" as="sourcePoint" />
            <mxPoint x="210" y="450" as="targetPoint" />
          </mxGeometry>
        </mxCell>
        <mxCell id="_GVp-q5QUONOE__FDdNF-38" value="" style="endArrow=none;html=1;rounded=0;exitX=1;exitY=0.5;exitDx=0;exitDy=0;strokeWidth=0.5;strokeColor=#4D4D4D;entryX=0;entryY=0.5;entryDx=0;entryDy=0;startArrow=none;startFill=0;endFill=0;" edge="1" parent="1" source="_GVp-q5QUONOE__FDdNF-2" target="_GVp-q5QUONOE__FDdNF-7">
          <mxGeometry width="50" height="50" relative="1" as="geometry">
            <mxPoint x="130" y="400" as="sourcePoint" />
            <mxPoint x="210" y="400" as="targetPoint" />
          </mxGeometry>
        </mxCell>
        <mxCell id="_GVp-q5QUONOE__FDdNF-39" value="" style="endArrow=none;html=1;rounded=0;exitX=1;exitY=0.5;exitDx=0;exitDy=0;strokeWidth=0.5;strokeColor=#4D4D4D;entryX=0;entryY=0.5;entryDx=0;entryDy=0;startArrow=none;startFill=0;endFill=0;" edge="1" parent="1" source="_GVp-q5QUONOE__FDdNF-2" target="_GVp-q5QUONOE__FDdNF-8">
          <mxGeometry width="50" height="50" relative="1" as="geometry">
            <mxPoint x="140" y="410" as="sourcePoint" />
            <mxPoint x="220" y="410" as="targetPoint" />
          </mxGeometry>
        </mxCell>
        <mxCell id="_GVp-q5QUONOE__FDdNF-40" value="" style="endArrow=none;html=1;rounded=0;exitX=1;exitY=0.5;exitDx=0;exitDy=0;strokeWidth=0.5;strokeColor=#4D4D4D;entryX=0;entryY=0.5;entryDx=0;entryDy=0;startArrow=none;startFill=0;endFill=0;" edge="1" parent="1" source="_GVp-q5QUONOE__FDdNF-3" target="_GVp-q5QUONOE__FDdNF-7">
          <mxGeometry width="50" height="50" relative="1" as="geometry">
            <mxPoint x="150" y="420" as="sourcePoint" />
            <mxPoint x="230" y="420" as="targetPoint" />
          </mxGeometry>
        </mxCell>
        <mxCell id="_GVp-q5QUONOE__FDdNF-41" value="" style="endArrow=none;html=1;rounded=0;exitX=1;exitY=0.5;exitDx=0;exitDy=0;strokeWidth=0.5;strokeColor=#4D4D4D;entryX=0;entryY=0.5;entryDx=0;entryDy=0;startArrow=none;startFill=0;endFill=0;" edge="1" parent="1" source="_GVp-q5QUONOE__FDdNF-3" target="_GVp-q5QUONOE__FDdNF-8">
          <mxGeometry width="50" height="50" relative="1" as="geometry">
            <mxPoint x="160" y="430" as="sourcePoint" />
            <mxPoint x="240" y="430" as="targetPoint" />
          </mxGeometry>
        </mxCell>
        <mxCell id="_GVp-q5QUONOE__FDdNF-42" value="" style="endArrow=none;html=1;rounded=0;exitX=1;exitY=0.5;exitDx=0;exitDy=0;strokeWidth=0.5;strokeColor=#4D4D4D;entryX=0;entryY=0.5;entryDx=0;entryDy=0;startArrow=none;startFill=0;endFill=0;" edge="1" parent="1" source="_GVp-q5QUONOE__FDdNF-4" target="_GVp-q5QUONOE__FDdNF-6">
          <mxGeometry width="50" height="50" relative="1" as="geometry">
            <mxPoint x="170" y="440" as="sourcePoint" />
            <mxPoint x="250" y="440" as="targetPoint" />
          </mxGeometry>
        </mxCell>
        <mxCell id="_GVp-q5QUONOE__FDdNF-43" value="" style="endArrow=none;html=1;rounded=0;exitX=1;exitY=0.5;exitDx=0;exitDy=0;strokeWidth=0.5;strokeColor=#4D4D4D;entryX=0;entryY=0.5;entryDx=0;entryDy=0;startArrow=none;startFill=0;endFill=0;" edge="1" parent="1" source="_GVp-q5QUONOE__FDdNF-4" target="_GVp-q5QUONOE__FDdNF-7">
          <mxGeometry width="50" height="50" relative="1" as="geometry">
            <mxPoint x="180" y="450" as="sourcePoint" />
            <mxPoint x="260" y="450" as="targetPoint" />
          </mxGeometry>
        </mxCell>
        <mxCell id="_GVp-q5QUONOE__FDdNF-45" value="" style="endArrow=none;html=1;rounded=0;exitX=1;exitY=0.5;exitDx=0;exitDy=0;strokeWidth=0.5;strokeColor=#4D4D4D;entryX=0;entryY=0.5;entryDx=0;entryDy=0;startArrow=none;startFill=0;endFill=0;" edge="1" parent="1" source="_GVp-q5QUONOE__FDdNF-4" target="_GVp-q5QUONOE__FDdNF-8">
          <mxGeometry width="50" height="50" relative="1" as="geometry">
            <mxPoint x="190" y="460" as="sourcePoint" />
            <mxPoint x="270" y="460" as="targetPoint" />
          </mxGeometry>
        </mxCell>
        <mxCell id="_GVp-q5QUONOE__FDdNF-46" value="" style="endArrow=none;html=1;rounded=0;exitX=1;exitY=0.5;exitDx=0;exitDy=0;strokeWidth=0.5;strokeColor=#4D4D4D;entryX=0;entryY=0.5;entryDx=0;entryDy=0;startArrow=none;startFill=0;endFill=0;" edge="1" parent="1" source="_GVp-q5QUONOE__FDdNF-11" target="_GVp-q5QUONOE__FDdNF-6">
          <mxGeometry width="50" height="50" relative="1" as="geometry">
            <mxPoint x="200" y="470" as="sourcePoint" />
            <mxPoint x="280" y="470" as="targetPoint" />
          </mxGeometry>
        </mxCell>
        <mxCell id="_GVp-q5QUONOE__FDdNF-47" value="" style="endArrow=none;html=1;rounded=0;exitX=1;exitY=0.5;exitDx=0;exitDy=0;strokeWidth=0.5;strokeColor=#4D4D4D;entryX=0;entryY=0.5;entryDx=0;entryDy=0;startArrow=none;startFill=0;endFill=0;" edge="1" parent="1" source="_GVp-q5QUONOE__FDdNF-11" target="_GVp-q5QUONOE__FDdNF-7">
          <mxGeometry width="50" height="50" relative="1" as="geometry">
            <mxPoint x="210" y="480" as="sourcePoint" />
            <mxPoint x="290" y="480" as="targetPoint" />
          </mxGeometry>
        </mxCell>
        <mxCell id="_GVp-q5QUONOE__FDdNF-48" value="" style="endArrow=none;html=1;rounded=0;exitX=1;exitY=0.5;exitDx=0;exitDy=0;strokeWidth=0.5;strokeColor=#4D4D4D;entryX=0;entryY=0.5;entryDx=0;entryDy=0;startArrow=none;startFill=0;endFill=0;" edge="1" parent="1" source="_GVp-q5QUONOE__FDdNF-11" target="_GVp-q5QUONOE__FDdNF-8">
          <mxGeometry width="50" height="50" relative="1" as="geometry">
            <mxPoint x="220" y="490" as="sourcePoint" />
            <mxPoint x="300" y="490" as="targetPoint" />
          </mxGeometry>
        </mxCell>
        <mxCell id="_GVp-q5QUONOE__FDdNF-83" value="" style="ellipse;whiteSpace=wrap;html=1;aspect=fixed;fillColor=#D8E4FC;rotation=-180;strokeColor=none;" vertex="1" parent="1">
          <mxGeometry x="506" y="470" width="40" height="40" as="geometry" />
        </mxCell>
        <mxCell id="_GVp-q5QUONOE__FDdNF-84" value="" style="ellipse;whiteSpace=wrap;html=1;aspect=fixed;fillColor=#D8E4FC;rotation=-180;strokeColor=none;" vertex="1" parent="1">
          <mxGeometry x="505" y="420" width="40" height="40" as="geometry" />
        </mxCell>
        <mxCell id="_GVp-q5QUONOE__FDdNF-85" value="" style="ellipse;whiteSpace=wrap;html=1;aspect=fixed;fillColor=#D8E4FC;rotation=-180;strokeColor=none;" vertex="1" parent="1">
          <mxGeometry x="506" y="370" width="40" height="40" as="geometry" />
        </mxCell>
        <mxCell id="_GVp-q5QUONOE__FDdNF-86" value="" style="ellipse;whiteSpace=wrap;html=1;aspect=fixed;fillColor=#D8E4FC;rotation=-180;strokeColor=none;" vertex="1" parent="1">
          <mxGeometry x="506" y="320" width="40" height="40" as="geometry" />
        </mxCell>
        <mxCell id="_GVp-q5QUONOE__FDdNF-87" value="" style="ellipse;whiteSpace=wrap;html=1;aspect=fixed;fillColor=#D8E4FC;rotation=-180;strokeColor=none;" vertex="1" parent="1">
          <mxGeometry x="386" y="470" width="40" height="40" as="geometry" />
        </mxCell>
        <mxCell id="_GVp-q5QUONOE__FDdNF-88" value="" style="ellipse;whiteSpace=wrap;html=1;aspect=fixed;fillColor=#D8E4FC;rotation=-180;strokeColor=none;" vertex="1" parent="1">
          <mxGeometry x="386" y="420" width="40" height="40" as="geometry" />
        </mxCell>
        <mxCell id="_GVp-q5QUONOE__FDdNF-89" value="" style="ellipse;whiteSpace=wrap;html=1;aspect=fixed;fillColor=#D8E4FC;rotation=-180;strokeColor=none;" vertex="1" parent="1">
          <mxGeometry x="387" y="370" width="40" height="40" as="geometry" />
        </mxCell>
        <mxCell id="_GVp-q5QUONOE__FDdNF-90" value="" style="ellipse;whiteSpace=wrap;html=1;aspect=fixed;fillColor=#D8E4FC;rotation=-180;strokeColor=none;" vertex="1" parent="1">
          <mxGeometry x="386" y="320" width="40" height="40" as="geometry" />
        </mxCell>
        <mxCell id="_GVp-q5QUONOE__FDdNF-91" value="" style="ellipse;whiteSpace=wrap;html=1;aspect=fixed;fillColor=#D8E4FC;rotation=-180;strokeColor=none;" vertex="1" parent="1">
          <mxGeometry x="506" y="270" width="40" height="40" as="geometry" />
        </mxCell>
        <mxCell id="_GVp-q5QUONOE__FDdNF-92" value="" style="ellipse;whiteSpace=wrap;html=1;aspect=fixed;fillColor=#D8E4FC;rotation=-180;strokeColor=none;" vertex="1" parent="1">
          <mxGeometry x="506" y="520" width="40" height="40" as="geometry" />
        </mxCell>
        <mxCell id="_GVp-q5QUONOE__FDdNF-93" value="" style="endArrow=none;html=1;rounded=0;exitX=1;exitY=0.5;exitDx=0;exitDy=0;strokeWidth=0.5;strokeColor=#4D4D4D;entryX=0;entryY=0.5;entryDx=0;entryDy=0;endFill=0;" edge="1" parent="1" source="_GVp-q5QUONOE__FDdNF-92" target="_GVp-q5QUONOE__FDdNF-87">
          <mxGeometry width="50" height="50" relative="1" as="geometry">
            <mxPoint x="326" y="590" as="sourcePoint" />
            <mxPoint x="276" y="641" as="targetPoint" />
          </mxGeometry>
        </mxCell>
        <mxCell id="_GVp-q5QUONOE__FDdNF-94" value="" style="endArrow=none;html=1;rounded=0;exitX=1;exitY=0.5;exitDx=0;exitDy=0;strokeWidth=0.5;strokeColor=#4D4D4D;entryX=0;entryY=0.5;entryDx=0;entryDy=0;endFill=0;" edge="1" parent="1" source="_GVp-q5QUONOE__FDdNF-92" target="_GVp-q5QUONOE__FDdNF-88">
          <mxGeometry width="50" height="50" relative="1" as="geometry">
            <mxPoint x="496" y="530" as="sourcePoint" />
            <mxPoint x="416" y="480" as="targetPoint" />
          </mxGeometry>
        </mxCell>
        <mxCell id="_GVp-q5QUONOE__FDdNF-95" value="" style="endArrow=none;html=1;rounded=0;exitX=1;exitY=0.5;exitDx=0;exitDy=0;strokeWidth=0.5;strokeColor=#4D4D4D;entryX=0;entryY=0.5;entryDx=0;entryDy=0;endFill=0;" edge="1" parent="1" source="_GVp-q5QUONOE__FDdNF-92" target="_GVp-q5QUONOE__FDdNF-89">
          <mxGeometry width="50" height="50" relative="1" as="geometry">
            <mxPoint x="496" y="530" as="sourcePoint" />
            <mxPoint x="417" y="430" as="targetPoint" />
          </mxGeometry>
        </mxCell>
        <mxCell id="_GVp-q5QUONOE__FDdNF-96" value="" style="endArrow=none;html=1;rounded=0;exitX=1;exitY=0.5;exitDx=0;exitDy=0;strokeWidth=0.5;strokeColor=#4D4D4D;entryX=0;entryY=0.5;entryDx=0;entryDy=0;endFill=0;" edge="1" parent="1" source="_GVp-q5QUONOE__FDdNF-92" target="_GVp-q5QUONOE__FDdNF-90">
          <mxGeometry width="50" height="50" relative="1" as="geometry">
            <mxPoint x="496" y="530" as="sourcePoint" />
            <mxPoint x="416" y="380" as="targetPoint" />
          </mxGeometry>
        </mxCell>
        <mxCell id="_GVp-q5QUONOE__FDdNF-97" value="" style="endArrow=none;html=1;rounded=0;exitX=1;exitY=0.5;exitDx=0;exitDy=0;strokeWidth=0.5;strokeColor=#4D4D4D;entryX=0;entryY=0.5;entryDx=0;entryDy=0;startArrow=none;startFill=0;endFill=0;" edge="1" parent="1" target="_GVp-q5QUONOE__FDdNF-87">
          <mxGeometry width="50" height="50" relative="1" as="geometry">
            <mxPoint x="506" y="490" as="sourcePoint" />
            <mxPoint x="426" y="490" as="targetPoint" />
          </mxGeometry>
        </mxCell>
        <mxCell id="_GVp-q5QUONOE__FDdNF-98" value="" style="endArrow=none;html=1;rounded=0;exitX=1;exitY=0.5;exitDx=0;exitDy=0;strokeWidth=0.5;strokeColor=#4D4D4D;entryX=0;entryY=0.5;entryDx=0;entryDy=0;endFill=0;" edge="1" parent="1" source="_GVp-q5QUONOE__FDdNF-84" target="_GVp-q5QUONOE__FDdNF-87">
          <mxGeometry width="50" height="50" relative="1" as="geometry">
            <mxPoint x="486" y="520" as="sourcePoint" />
            <mxPoint x="406" y="470" as="targetPoint" />
          </mxGeometry>
        </mxCell>
        <mxCell id="_GVp-q5QUONOE__FDdNF-99" value="" style="endArrow=none;html=1;rounded=0;exitX=1;exitY=0.5;exitDx=0;exitDy=0;strokeWidth=0.5;strokeColor=#4D4D4D;entryX=0;entryY=0.5;entryDx=0;entryDy=0;endFill=0;" edge="1" parent="1" source="_GVp-q5QUONOE__FDdNF-85" target="_GVp-q5QUONOE__FDdNF-87">
          <mxGeometry width="50" height="50" relative="1" as="geometry">
            <mxPoint x="476" y="510" as="sourcePoint" />
            <mxPoint x="396" y="460" as="targetPoint" />
          </mxGeometry>
        </mxCell>
        <mxCell id="_GVp-q5QUONOE__FDdNF-100" value="" style="endArrow=none;html=1;rounded=0;exitX=1;exitY=0.5;exitDx=0;exitDy=0;strokeWidth=0.5;strokeColor=#4D4D4D;entryX=0;entryY=0.5;entryDx=0;entryDy=0;endFill=0;" edge="1" parent="1" source="_GVp-q5QUONOE__FDdNF-86" target="_GVp-q5QUONOE__FDdNF-87">
          <mxGeometry width="50" height="50" relative="1" as="geometry">
            <mxPoint x="496" y="380" as="sourcePoint" />
            <mxPoint x="416" y="480" as="targetPoint" />
          </mxGeometry>
        </mxCell>
        <mxCell id="_GVp-q5QUONOE__FDdNF-101" value="" style="endArrow=none;html=1;rounded=0;exitX=1;exitY=0.5;exitDx=0;exitDy=0;strokeWidth=0.5;strokeColor=#4D4D4D;entryX=0;entryY=0.5;entryDx=0;entryDy=0;endFill=0;" edge="1" parent="1" source="_GVp-q5QUONOE__FDdNF-91" target="_GVp-q5QUONOE__FDdNF-87">
          <mxGeometry width="50" height="50" relative="1" as="geometry">
            <mxPoint x="486" y="370" as="sourcePoint" />
            <mxPoint x="406" y="470" as="targetPoint" />
          </mxGeometry>
        </mxCell>
        <mxCell id="_GVp-q5QUONOE__FDdNF-102" value="" style="endArrow=none;html=1;rounded=0;exitX=1;exitY=0.5;exitDx=0;exitDy=0;strokeWidth=0.5;strokeColor=#4D4D4D;entryX=0;entryY=0.5;entryDx=0;entryDy=0;startArrow=none;startFill=0;endFill=0;" edge="1" parent="1" source="_GVp-q5QUONOE__FDdNF-83" target="_GVp-q5QUONOE__FDdNF-89">
          <mxGeometry width="50" height="50" relative="1" as="geometry">
            <mxPoint x="446" y="533" as="sourcePoint" />
            <mxPoint x="366" y="533" as="targetPoint" />
          </mxGeometry>
        </mxCell>
        <mxCell id="_GVp-q5QUONOE__FDdNF-103" value="" style="endArrow=none;html=1;rounded=0;exitX=1;exitY=0.5;exitDx=0;exitDy=0;strokeWidth=0.5;strokeColor=#4D4D4D;entryX=0;entryY=0.5;entryDx=0;entryDy=0;startArrow=none;startFill=0;endFill=0;" edge="1" parent="1" source="_GVp-q5QUONOE__FDdNF-85" target="_GVp-q5QUONOE__FDdNF-88">
          <mxGeometry width="50" height="50" relative="1" as="geometry">
            <mxPoint x="494" y="393" as="sourcePoint" />
            <mxPoint x="414" y="393" as="targetPoint" />
          </mxGeometry>
        </mxCell>
        <mxCell id="_GVp-q5QUONOE__FDdNF-104" value="" style="endArrow=none;html=1;rounded=0;exitX=1;exitY=0.5;exitDx=0;exitDy=0;strokeWidth=0.5;strokeColor=#4D4D4D;entryX=0;entryY=0.5;entryDx=0;entryDy=0;startArrow=none;startFill=0;endFill=0;" edge="1" parent="1" source="_GVp-q5QUONOE__FDdNF-83" target="_GVp-q5QUONOE__FDdNF-88">
          <mxGeometry width="50" height="50" relative="1" as="geometry">
            <mxPoint x="476" y="460" as="sourcePoint" />
            <mxPoint x="396" y="460" as="targetPoint" />
          </mxGeometry>
        </mxCell>
        <mxCell id="_GVp-q5QUONOE__FDdNF-105" value="" style="endArrow=none;html=1;rounded=0;exitX=1;exitY=0.5;exitDx=0;exitDy=0;strokeWidth=0.5;strokeColor=#4D4D4D;entryX=0;entryY=0.5;entryDx=0;entryDy=0;startArrow=none;startFill=0;endFill=0;" edge="1" parent="1" source="_GVp-q5QUONOE__FDdNF-84" target="_GVp-q5QUONOE__FDdNF-88">
          <mxGeometry width="50" height="50" relative="1" as="geometry">
            <mxPoint x="466" y="450" as="sourcePoint" />
            <mxPoint x="386" y="451" as="targetPoint" />
          </mxGeometry>
        </mxCell>
        <mxCell id="_GVp-q5QUONOE__FDdNF-106" value="" style="endArrow=none;html=1;rounded=0;exitX=1;exitY=0.5;exitDx=0;exitDy=0;strokeWidth=0.5;strokeColor=#4D4D4D;entryX=0;entryY=0.5;entryDx=0;entryDy=0;startArrow=none;startFill=0;endFill=0;" edge="1" parent="1" source="_GVp-q5QUONOE__FDdNF-83" target="_GVp-q5QUONOE__FDdNF-90">
          <mxGeometry width="50" height="50" relative="1" as="geometry">
            <mxPoint x="496" y="480" as="sourcePoint" />
            <mxPoint x="416" y="380" as="targetPoint" />
          </mxGeometry>
        </mxCell>
        <mxCell id="_GVp-q5QUONOE__FDdNF-107" value="" style="endArrow=none;html=1;rounded=0;exitX=1;exitY=0.5;exitDx=0;exitDy=0;strokeWidth=0.5;strokeColor=#4D4D4D;entryX=0;entryY=0.5;entryDx=0;entryDy=0;startArrow=none;startFill=0;endFill=0;" edge="1" parent="1" source="_GVp-q5QUONOE__FDdNF-84" target="_GVp-q5QUONOE__FDdNF-89">
          <mxGeometry width="50" height="50" relative="1" as="geometry">
            <mxPoint x="496" y="430" as="sourcePoint" />
            <mxPoint x="417" y="430" as="targetPoint" />
          </mxGeometry>
        </mxCell>
        <mxCell id="_GVp-q5QUONOE__FDdNF-108" value="" style="endArrow=none;html=1;rounded=0;exitX=1;exitY=0.5;exitDx=0;exitDy=0;strokeWidth=0.5;strokeColor=#4D4D4D;entryX=0;entryY=0.5;entryDx=0;entryDy=0;startArrow=none;startFill=0;endFill=0;" edge="1" parent="1" source="_GVp-q5QUONOE__FDdNF-84" target="_GVp-q5QUONOE__FDdNF-90">
          <mxGeometry width="50" height="50" relative="1" as="geometry">
            <mxPoint x="486" y="420" as="sourcePoint" />
            <mxPoint x="406" y="420" as="targetPoint" />
          </mxGeometry>
        </mxCell>
        <mxCell id="_GVp-q5QUONOE__FDdNF-109" value="" style="endArrow=none;html=1;rounded=0;exitX=1;exitY=0.5;exitDx=0;exitDy=0;strokeWidth=0.5;strokeColor=#4D4D4D;entryX=0;entryY=0.5;entryDx=0;entryDy=0;startArrow=none;startFill=0;endFill=0;" edge="1" parent="1" source="_GVp-q5QUONOE__FDdNF-85" target="_GVp-q5QUONOE__FDdNF-89">
          <mxGeometry width="50" height="50" relative="1" as="geometry">
            <mxPoint x="476" y="410" as="sourcePoint" />
            <mxPoint x="396" y="410" as="targetPoint" />
          </mxGeometry>
        </mxCell>
        <mxCell id="_GVp-q5QUONOE__FDdNF-110" value="" style="endArrow=none;html=1;rounded=0;exitX=1;exitY=0.5;exitDx=0;exitDy=0;strokeWidth=0.5;strokeColor=#4D4D4D;entryX=0;entryY=0.5;entryDx=0;entryDy=0;startArrow=none;startFill=0;endFill=0;" edge="1" parent="1" source="_GVp-q5QUONOE__FDdNF-85" target="_GVp-q5QUONOE__FDdNF-90">
          <mxGeometry width="50" height="50" relative="1" as="geometry">
            <mxPoint x="466" y="400" as="sourcePoint" />
            <mxPoint x="386" y="400" as="targetPoint" />
          </mxGeometry>
        </mxCell>
        <mxCell id="_GVp-q5QUONOE__FDdNF-111" value="" style="endArrow=none;html=1;rounded=0;exitX=1;exitY=0.5;exitDx=0;exitDy=0;strokeWidth=0.5;strokeColor=#4D4D4D;entryX=0;entryY=0.5;entryDx=0;entryDy=0;startArrow=none;startFill=0;endFill=0;" edge="1" parent="1" source="_GVp-q5QUONOE__FDdNF-86" target="_GVp-q5QUONOE__FDdNF-88">
          <mxGeometry width="50" height="50" relative="1" as="geometry">
            <mxPoint x="456" y="390" as="sourcePoint" />
            <mxPoint x="376" y="390" as="targetPoint" />
          </mxGeometry>
        </mxCell>
        <mxCell id="_GVp-q5QUONOE__FDdNF-112" value="" style="endArrow=none;html=1;rounded=0;exitX=1;exitY=0.5;exitDx=0;exitDy=0;strokeWidth=0.5;strokeColor=#4D4D4D;entryX=0;entryY=0.5;entryDx=0;entryDy=0;startArrow=none;startFill=0;endFill=0;" edge="1" parent="1" source="_GVp-q5QUONOE__FDdNF-86" target="_GVp-q5QUONOE__FDdNF-89">
          <mxGeometry width="50" height="50" relative="1" as="geometry">
            <mxPoint x="446" y="380" as="sourcePoint" />
            <mxPoint x="366" y="380" as="targetPoint" />
          </mxGeometry>
        </mxCell>
        <mxCell id="_GVp-q5QUONOE__FDdNF-113" value="" style="endArrow=none;html=1;rounded=0;exitX=1;exitY=0.5;exitDx=0;exitDy=0;strokeWidth=0.5;strokeColor=#4D4D4D;entryX=0;entryY=0.5;entryDx=0;entryDy=0;startArrow=none;startFill=0;endFill=0;" edge="1" parent="1" source="_GVp-q5QUONOE__FDdNF-86" target="_GVp-q5QUONOE__FDdNF-90">
          <mxGeometry width="50" height="50" relative="1" as="geometry">
            <mxPoint x="436" y="370" as="sourcePoint" />
            <mxPoint x="356" y="370" as="targetPoint" />
          </mxGeometry>
        </mxCell>
        <mxCell id="_GVp-q5QUONOE__FDdNF-114" value="" style="endArrow=none;html=1;rounded=0;exitX=1;exitY=0.5;exitDx=0;exitDy=0;strokeWidth=0.5;strokeColor=#4D4D4D;entryX=0;entryY=0.5;entryDx=0;entryDy=0;startArrow=none;startFill=0;endFill=0;" edge="1" parent="1" source="_GVp-q5QUONOE__FDdNF-91" target="_GVp-q5QUONOE__FDdNF-88">
          <mxGeometry width="50" height="50" relative="1" as="geometry">
            <mxPoint x="426" y="360" as="sourcePoint" />
            <mxPoint x="346" y="360" as="targetPoint" />
          </mxGeometry>
        </mxCell>
        <mxCell id="_GVp-q5QUONOE__FDdNF-115" value="" style="endArrow=none;html=1;rounded=0;exitX=1;exitY=0.5;exitDx=0;exitDy=0;strokeWidth=0.5;strokeColor=#4D4D4D;entryX=0;entryY=0.5;entryDx=0;entryDy=0;startArrow=none;startFill=0;endFill=0;" edge="1" parent="1" source="_GVp-q5QUONOE__FDdNF-91" target="_GVp-q5QUONOE__FDdNF-89">
          <mxGeometry width="50" height="50" relative="1" as="geometry">
            <mxPoint x="416" y="350" as="sourcePoint" />
            <mxPoint x="336" y="350" as="targetPoint" />
          </mxGeometry>
        </mxCell>
        <mxCell id="_GVp-q5QUONOE__FDdNF-116" value="" style="endArrow=none;html=1;rounded=0;exitX=1;exitY=0.5;exitDx=0;exitDy=0;strokeWidth=0.5;strokeColor=#4D4D4D;entryX=0;entryY=0.5;entryDx=0;entryDy=0;startArrow=none;startFill=0;endFill=0;" edge="1" parent="1" source="_GVp-q5QUONOE__FDdNF-91" target="_GVp-q5QUONOE__FDdNF-90">
          <mxGeometry width="50" height="50" relative="1" as="geometry">
            <mxPoint x="406" y="340" as="sourcePoint" />
            <mxPoint x="326" y="340" as="targetPoint" />
          </mxGeometry>
        </mxCell>
        <mxCell id="_GVp-q5QUONOE__FDdNF-119" value="" style="endArrow=none;html=1;rounded=0;exitX=1;exitY=0.5;exitDx=0;exitDy=0;strokeWidth=0.5;strokeColor=#4D4D4D;entryX=0;entryY=0.5;entryDx=0;entryDy=0;endFill=0;" edge="1" parent="1" source="_GVp-q5QUONOE__FDdNF-5" target="_GVp-q5QUONOE__FDdNF-9">
          <mxGeometry width="50" height="50" relative="1" as="geometry">
            <mxPoint x="130" y="300" as="sourcePoint" />
            <mxPoint x="210" y="350" as="targetPoint" />
          </mxGeometry>
        </mxCell>
        <mxCell id="_GVp-q5QUONOE__FDdNF-120" value="" style="endArrow=none;html=1;rounded=0;exitX=1;exitY=0.5;exitDx=0;exitDy=0;strokeWidth=0.5;strokeColor=#4D4D4D;entryX=0;entryY=0.5;entryDx=0;entryDy=0;endFill=0;" edge="1" parent="1" source="_GVp-q5QUONOE__FDdNF-6" target="_GVp-q5QUONOE__FDdNF-9">
          <mxGeometry width="50" height="50" relative="1" as="geometry">
            <mxPoint x="250" y="350" as="sourcePoint" />
            <mxPoint x="303" y="397" as="targetPoint" />
          </mxGeometry>
        </mxCell>
        <mxCell id="_GVp-q5QUONOE__FDdNF-121" value="" style="endArrow=none;html=1;rounded=0;exitX=1;exitY=0.5;exitDx=0;exitDy=0;strokeWidth=0.5;strokeColor=#4D4D4D;entryX=0;entryY=0.5;entryDx=0;entryDy=0;endFill=0;" edge="1" parent="1" source="_GVp-q5QUONOE__FDdNF-7" target="_GVp-q5QUONOE__FDdNF-9">
          <mxGeometry width="50" height="50" relative="1" as="geometry">
            <mxPoint x="260" y="360" as="sourcePoint" />
            <mxPoint x="313" y="407" as="targetPoint" />
          </mxGeometry>
        </mxCell>
        <mxCell id="_GVp-q5QUONOE__FDdNF-122" value="" style="endArrow=none;html=1;rounded=0;exitX=1;exitY=0.5;exitDx=0;exitDy=0;strokeWidth=0.5;strokeColor=#4D4D4D;entryX=0;entryY=0.5;entryDx=0;entryDy=0;endFill=0;" edge="1" parent="1" source="_GVp-q5QUONOE__FDdNF-8" target="_GVp-q5QUONOE__FDdNF-9">
          <mxGeometry width="50" height="50" relative="1" as="geometry">
            <mxPoint x="270" y="370" as="sourcePoint" />
            <mxPoint x="323" y="417" as="targetPoint" />
          </mxGeometry>
        </mxCell>
        <mxCell id="_GVp-q5QUONOE__FDdNF-123" value="" style="endArrow=none;html=1;rounded=0;exitX=1;exitY=0.5;exitDx=0;exitDy=0;strokeWidth=0.5;strokeColor=#4D4D4D;entryX=0;entryY=0.5;entryDx=0;entryDy=0;endFill=0;" edge="1" parent="1" source="_GVp-q5QUONOE__FDdNF-5" target="_GVp-q5QUONOE__FDdNF-10">
          <mxGeometry width="50" height="50" relative="1" as="geometry">
            <mxPoint x="280" y="380" as="sourcePoint" />
            <mxPoint x="333" y="427" as="targetPoint" />
          </mxGeometry>
        </mxCell>
        <mxCell id="_GVp-q5QUONOE__FDdNF-124" value="" style="endArrow=none;html=1;rounded=0;exitX=1;exitY=0.5;exitDx=0;exitDy=0;strokeWidth=0.5;strokeColor=#4D4D4D;entryX=0;entryY=0.5;entryDx=0;entryDy=0;endFill=0;" edge="1" parent="1" source="_GVp-q5QUONOE__FDdNF-6" target="_GVp-q5QUONOE__FDdNF-10">
          <mxGeometry width="50" height="50" relative="1" as="geometry">
            <mxPoint x="290" y="390" as="sourcePoint" />
            <mxPoint x="343" y="437" as="targetPoint" />
          </mxGeometry>
        </mxCell>
        <mxCell id="_GVp-q5QUONOE__FDdNF-125" value="" style="endArrow=none;html=1;rounded=0;exitX=1;exitY=0.5;exitDx=0;exitDy=0;strokeWidth=0.5;strokeColor=#4D4D4D;entryX=0;entryY=0.5;entryDx=0;entryDy=0;endFill=0;" edge="1" parent="1" source="_GVp-q5QUONOE__FDdNF-7" target="_GVp-q5QUONOE__FDdNF-10">
          <mxGeometry width="50" height="50" relative="1" as="geometry">
            <mxPoint x="300" y="400" as="sourcePoint" />
            <mxPoint x="353" y="447" as="targetPoint" />
          </mxGeometry>
        </mxCell>
        <mxCell id="_GVp-q5QUONOE__FDdNF-126" value="" style="endArrow=none;html=1;rounded=0;exitX=1;exitY=0.5;exitDx=0;exitDy=0;strokeWidth=0.5;strokeColor=#4D4D4D;entryX=0;entryY=0.5;entryDx=0;entryDy=0;endFill=0;" edge="1" parent="1" source="_GVp-q5QUONOE__FDdNF-8" target="_GVp-q5QUONOE__FDdNF-10">
          <mxGeometry width="50" height="50" relative="1" as="geometry">
            <mxPoint x="310" y="410" as="sourcePoint" />
            <mxPoint x="363" y="457" as="targetPoint" />
          </mxGeometry>
        </mxCell>
        <mxCell id="_GVp-q5QUONOE__FDdNF-127" value="" style="endArrow=none;html=1;rounded=0;exitX=1;exitY=0.5;exitDx=0;exitDy=0;strokeWidth=0.5;strokeColor=#4D4D4D;entryX=1;entryY=0.5;entryDx=0;entryDy=0;endFill=0;" edge="1" parent="1" source="_GVp-q5QUONOE__FDdNF-9" target="_GVp-q5QUONOE__FDdNF-90">
          <mxGeometry width="50" height="50" relative="1" as="geometry">
            <mxPoint x="320" y="420" as="sourcePoint" />
            <mxPoint x="373" y="467" as="targetPoint" />
          </mxGeometry>
        </mxCell>
        <mxCell id="_GVp-q5QUONOE__FDdNF-128" value="" style="endArrow=none;html=1;rounded=0;exitX=1;exitY=0.5;exitDx=0;exitDy=0;strokeWidth=0.5;strokeColor=#4D4D4D;entryX=1;entryY=0.5;entryDx=0;entryDy=0;endFill=0;" edge="1" parent="1" source="_GVp-q5QUONOE__FDdNF-9" target="_GVp-q5QUONOE__FDdNF-89">
          <mxGeometry width="50" height="50" relative="1" as="geometry">
            <mxPoint x="330" y="430" as="sourcePoint" />
            <mxPoint x="383" y="477" as="targetPoint" />
          </mxGeometry>
        </mxCell>
        <mxCell id="_GVp-q5QUONOE__FDdNF-129" value="" style="endArrow=none;html=1;rounded=0;exitX=1;exitY=0.5;exitDx=0;exitDy=0;strokeWidth=0.5;strokeColor=#4D4D4D;entryX=1;entryY=0.5;entryDx=0;entryDy=0;endFill=0;" edge="1" parent="1" source="_GVp-q5QUONOE__FDdNF-9" target="_GVp-q5QUONOE__FDdNF-88">
          <mxGeometry width="50" height="50" relative="1" as="geometry">
            <mxPoint x="343" y="400" as="sourcePoint" />
            <mxPoint x="397" y="400" as="targetPoint" />
          </mxGeometry>
        </mxCell>
        <mxCell id="_GVp-q5QUONOE__FDdNF-130" value="" style="endArrow=none;html=1;rounded=0;exitX=1;exitY=0.5;exitDx=0;exitDy=0;strokeWidth=0.5;strokeColor=#4D4D4D;entryX=1;entryY=0.5;entryDx=0;entryDy=0;endFill=0;" edge="1" parent="1" source="_GVp-q5QUONOE__FDdNF-9" target="_GVp-q5QUONOE__FDdNF-87">
          <mxGeometry width="50" height="50" relative="1" as="geometry">
            <mxPoint x="353" y="410" as="sourcePoint" />
            <mxPoint x="407" y="410" as="targetPoint" />
          </mxGeometry>
        </mxCell>
        <mxCell id="_GVp-q5QUONOE__FDdNF-131" value="" style="endArrow=none;html=1;rounded=0;exitX=1;exitY=0.5;exitDx=0;exitDy=0;strokeWidth=0.5;strokeColor=#4D4D4D;entryX=1;entryY=0.5;entryDx=0;entryDy=0;endFill=0;" edge="1" parent="1" source="_GVp-q5QUONOE__FDdNF-10" target="_GVp-q5QUONOE__FDdNF-90">
          <mxGeometry width="50" height="50" relative="1" as="geometry">
            <mxPoint x="363" y="420" as="sourcePoint" />
            <mxPoint x="417" y="420" as="targetPoint" />
          </mxGeometry>
        </mxCell>
        <mxCell id="_GVp-q5QUONOE__FDdNF-132" value="" style="endArrow=none;html=1;rounded=0;exitX=1;exitY=0.5;exitDx=0;exitDy=0;strokeWidth=0.5;strokeColor=#4D4D4D;entryX=1;entryY=0.5;entryDx=0;entryDy=0;endFill=0;" edge="1" parent="1" source="_GVp-q5QUONOE__FDdNF-10" target="_GVp-q5QUONOE__FDdNF-89">
          <mxGeometry width="50" height="50" relative="1" as="geometry">
            <mxPoint x="373" y="430" as="sourcePoint" />
            <mxPoint x="427" y="430" as="targetPoint" />
          </mxGeometry>
        </mxCell>
        <mxCell id="_GVp-q5QUONOE__FDdNF-133" value="" style="endArrow=none;html=1;rounded=0;exitX=1;exitY=0.5;exitDx=0;exitDy=0;strokeWidth=0.5;strokeColor=#4D4D4D;entryX=1;entryY=0.5;entryDx=0;entryDy=0;endFill=0;" edge="1" parent="1" source="_GVp-q5QUONOE__FDdNF-10" target="_GVp-q5QUONOE__FDdNF-88">
          <mxGeometry width="50" height="50" relative="1" as="geometry">
            <mxPoint x="383" y="440" as="sourcePoint" />
            <mxPoint x="437" y="440" as="targetPoint" />
          </mxGeometry>
        </mxCell>
        <mxCell id="_GVp-q5QUONOE__FDdNF-134" value="" style="endArrow=none;html=1;rounded=0;exitX=1;exitY=0.5;exitDx=0;exitDy=0;strokeWidth=0.5;strokeColor=#4D4D4D;entryX=1;entryY=0.5;entryDx=0;entryDy=0;endFill=0;" edge="1" parent="1" source="_GVp-q5QUONOE__FDdNF-10" target="_GVp-q5QUONOE__FDdNF-87">
          <mxGeometry width="50" height="50" relative="1" as="geometry">
            <mxPoint x="393" y="450" as="sourcePoint" />
            <mxPoint x="447" y="450" as="targetPoint" />
          </mxGeometry>
        </mxCell>
        <mxCell id="_GVp-q5QUONOE__FDdNF-138" value="" style="endArrow=classic;html=1;rounded=0;startArrow=classic;startFill=1;endFill=1;strokeWidth=1;strokeColor=#4D4D4D;fontSize=18;" edge="1" parent="1">
          <mxGeometry width="50" height="50" relative="1" as="geometry">
            <mxPoint x="80" y="260" as="sourcePoint" />
            <mxPoint x="240" y="260" as="targetPoint" />
          </mxGeometry>
        </mxCell>
        <mxCell id="_GVp-q5QUONOE__FDdNF-140" value="" style="endArrow=classic;html=1;rounded=0;startArrow=classic;startFill=1;endFill=1;strokeWidth=1;strokeColor=#4D4D4D;fontSize=18;" edge="1" parent="1">
          <mxGeometry width="50" height="50" relative="1" as="geometry">
            <mxPoint x="386" y="260" as="sourcePoint" />
            <mxPoint x="546" y="260" as="targetPoint" />
          </mxGeometry>
        </mxCell>
        <mxCell id="_GVp-q5QUONOE__FDdNF-141" value="" style="endArrow=classic;html=1;rounded=0;startArrow=classic;startFill=1;endFill=1;strokeWidth=1;strokeColor=#4D4D4D;fontSize=18;" edge="1" parent="1">
          <mxGeometry width="50" height="50" relative="1" as="geometry">
            <mxPoint x="245" y="260" as="sourcePoint" />
            <mxPoint x="381" y="260" as="targetPoint" />
          </mxGeometry>
        </mxCell>
        <mxCell id="_GVp-q5QUONOE__FDdNF-145" value="Decoder" style="text;html=1;align=center;verticalAlign=middle;whiteSpace=wrap;rounded=0;fontSize=18;fontFamily=Times New Roman;fontColor=#4D4D4D;" vertex="1" parent="1">
          <mxGeometry x="436" y="245" width="60" height="12" as="geometry" />
        </mxCell>
        <mxCell id="_GVp-q5QUONOE__FDdNF-146" value="Encoder" style="text;html=1;align=center;verticalAlign=middle;whiteSpace=wrap;rounded=0;fontSize=18;fontFamily=Times New Roman;fontColor=#4D4D4D;" vertex="1" parent="1">
          <mxGeometry x="130" y="245" width="60" height="12" as="geometry" />
        </mxCell>
        <mxCell id="_GVp-q5QUONOE__FDdNF-147" value="Latenter Raum" style="text;html=1;align=center;verticalAlign=middle;whiteSpace=wrap;rounded=0;fontSize=18;fontFamily=Times New Roman;fontColor=#4D4D4D;" vertex="1" parent="1">
          <mxGeometry x="254.5" y="238" width="117" height="25" as="geometry" />
        </mxCell>
        <mxCell id="_GVp-q5QUONOE__FDdNF-153" value="&lt;b style=&quot;font-size: 20px;&quot;&gt;Eingabe&lt;/b&gt;" style="text;html=1;align=center;verticalAlign=middle;whiteSpace=wrap;rounded=0;fontSize=20;fontFamily=Times New Roman;fontColor=#4D4D4D;" vertex="1" parent="1">
          <mxGeometry x="-5" y="400" width="60" height="25" as="geometry" />
        </mxCell>
        <mxCell id="_GVp-q5QUONOE__FDdNF-154" value="&lt;b style=&quot;font-size: 20px;&quot;&gt;Ausgabe&lt;/b&gt;" style="text;html=1;align=center;verticalAlign=middle;whiteSpace=wrap;rounded=0;fontSize=20;fontFamily=Times New Roman;fontColor=#4D4D4D;" vertex="1" parent="1">
          <mxGeometry x="572" y="406.5" width="60" height="12" as="geometry" />
        </mxCell>
        <mxCell id="_GVp-q5QUONOE__FDdNF-155" value="x&lt;sub&gt;1&lt;/sub&gt;&lt;sup&gt;&#39;&lt;/sup&gt;" style="ellipse;whiteSpace=wrap;html=1;aspect=fixed;fillColor=#D8E4FC;rotation=0;strokeColor=none;fontStyle=1" vertex="1" parent="1">
          <mxGeometry x="506" y="270" width="40" height="40" as="geometry" />
        </mxCell>
        <mxCell id="_GVp-q5QUONOE__FDdNF-156" value="x&lt;sub&gt;2&lt;/sub&gt;&lt;sup&gt;&#39;&lt;/sup&gt;" style="ellipse;whiteSpace=wrap;html=1;aspect=fixed;fillColor=#D8E4FC;rotation=0;strokeColor=none;fontStyle=1" vertex="1" parent="1">
          <mxGeometry x="506" y="320" width="40" height="40" as="geometry" />
        </mxCell>
        <mxCell id="_GVp-q5QUONOE__FDdNF-157" value="x&lt;sub&gt;3&lt;/sub&gt;&lt;sup&gt;&#39;&lt;/sup&gt;" style="ellipse;whiteSpace=wrap;html=1;aspect=fixed;fillColor=#D8E4FC;rotation=0;strokeColor=none;fontStyle=1" vertex="1" parent="1">
          <mxGeometry x="506" y="370" width="40" height="40" as="geometry" />
        </mxCell>
        <mxCell id="_GVp-q5QUONOE__FDdNF-158" value="x&lt;sub&gt;4&lt;/sub&gt;&lt;sup&gt;&#39;&lt;/sup&gt;" style="ellipse;whiteSpace=wrap;html=1;aspect=fixed;fillColor=#D8E4FC;rotation=0;strokeColor=none;fontStyle=1" vertex="1" parent="1">
          <mxGeometry x="505" y="420" width="40" height="40" as="geometry" />
        </mxCell>
        <mxCell id="_GVp-q5QUONOE__FDdNF-159" value="x&lt;sub&gt;5&lt;/sub&gt;&lt;sup&gt;&#39;&lt;/sup&gt;" style="ellipse;whiteSpace=wrap;html=1;aspect=fixed;fillColor=#D8E4FC;rotation=0;strokeColor=none;fontStyle=1" vertex="1" parent="1">
          <mxGeometry x="506" y="470" width="40" height="40" as="geometry" />
        </mxCell>
        <mxCell id="_GVp-q5QUONOE__FDdNF-160" value="x&lt;sub&gt;6&lt;/sub&gt;&lt;sup&gt;&#39;&lt;/sup&gt;" style="ellipse;whiteSpace=wrap;html=1;aspect=fixed;fillColor=#D8E4FC;rotation=0;strokeColor=none;fontStyle=1" vertex="1" parent="1">
          <mxGeometry x="506" y="520" width="40" height="40" as="geometry" />
        </mxCell>
      </root>
    </mxGraphModel>
  </diagram>
</mxfile>
